<svg width="515" height="440" viewBox="0 0 515 440" fill="none" xmlns="http://www.w3.org/2000/svg">
<path d="M110.032 88H120.963C122.244 88 123.284 89.0401 123.284 90.3213C123.284 91.6024 122.244 92.6425 120.963 92.6425H110.032C108.909 92.6425 108 91.7333 108 90.6105V90.0388C108 88.9161 108.909 88.0069 110.032 88.0069V88Z" fill="white" fill-opacity="0.51"/>
<path d="M110.032 258H120.963C122.244 258 123.284 259.04 123.284 260.321C123.284 261.602 122.244 262.643 120.963 262.643H110.032C108.909 262.643 108 261.733 108 260.611V260.039C108 258.916 108.909 258.007 110.032 258.007V258Z" fill="white" fill-opacity="0.51"/>
<path d="M110.032 201H120.963C122.244 201 123.284 202.04 123.284 203.321C123.284 204.602 122.244 205.643 120.963 205.643H110.032C108.909 205.643 108 204.733 108 203.611V203.039C108 201.916 108.909 201.007 110.032 201.007V201Z" fill="white" fill-opacity="0.51"/>
<path d="M110.032 156H120.963C122.244 156 123.284 157.04 123.284 158.321C123.284 159.602 122.244 160.643 120.963 160.643H110.032C108.909 160.643 108 159.733 108 158.611V158.039C108 156.916 108.909 156.007 110.032 156.007V156Z" fill="white" fill-opacity="0.51"/>
<path d="M100.032 75H110.963C112.244 75 113.284 76.0401 113.284 77.3213C113.284 78.6024 112.244 79.6425 110.963 79.6425H100.032C98.9092 79.6425 98 78.7333 98 77.6106V77.0389C98 75.9161 98.9092 75.0069 100.032 75.0069V75Z" fill="#4387FF" fill-opacity="0.75"/>
<path d="M100.032 270H110.963C112.244 270 113.284 271.04 113.284 272.321C113.284 273.602 112.244 274.643 110.963 274.643H100.032C98.9092 274.643 98 273.733 98 272.611V272.039C98 270.916 98.9092 270.007 100.032 270.007V270Z" fill="#4387FF" fill-opacity="0.75"/>
<rect x="117" y="100" width="11" height="4" rx="2" fill="#4387FF" fill-opacity="0.13"/>
<rect x="124" y="100" width="11" height="4" rx="2" fill="#D9D9D9" fill-opacity="0.13"/>
<rect x="129" y="100" width="12" height="4" rx="2" fill="url(#paint0_linear_189_8234)" fill-opacity="0.13"/>
<rect x="119" y="111" width="18" height="4" rx="2" fill="#FF7843" fill-opacity="0.13"/>
<rect x="128" y="122" width="14" height="4" rx="2" fill="#4387FF" fill-opacity="0.13"/>
<rect x="129" y="111" width="18" height="4" rx="2" fill="#4387FF" fill-opacity="0.13"/>
<rect x="138" y="111" width="18" height="4" rx="2" fill="#FF7843" fill-opacity="0.13"/>
<rect x="128" y="122" width="16" height="4" rx="2" fill="#FF7843" fill-opacity="0.13"/>
<rect x="136" y="122" width="16" height="4" rx="2" fill="url(#paint1_linear_189_8234)" fill-opacity="0.13"/>
<rect x="116" y="168" width="17" height="4" rx="2" fill="url(#paint2_linear_189_8234)" fill-opacity="0.13"/>
<rect x="116" y="179" width="13" height="4" rx="2" fill="#4387FF" fill-opacity="0.13"/>
<rect x="119" y="133" width="18" height="4" rx="2" fill="#FF7843" fill-opacity="0.13"/>
<rect x="116" y="190" width="17" height="4" rx="2" fill="#FF7843" fill-opacity="0.13"/>
<rect x="116" y="213" width="17" height="4" rx="2" fill="#4387FF" fill-opacity="0.13"/>
<rect x="129" y="133" width="18" height="4" rx="2" fill="#4387FF" fill-opacity="0.13"/>
<rect x="138" y="133" width="18" height="4" rx="2" fill="#FF7843" fill-opacity="0.13"/>
<rect x="126" y="168" width="17" height="4" rx="2" fill="url(#paint3_linear_189_8234)" fill-opacity="0.13"/>
<rect x="124" y="179" width="14" height="4" rx="2" fill="#FF7843" fill-opacity="0.13"/>
<rect x="126" y="190" width="17" height="4" rx="2" fill="url(#paint4_linear_189_8234)" fill-opacity="0.13"/>
<rect x="135" y="168" width="17" height="4" rx="2" fill="#FF7843" fill-opacity="0.13"/>
<rect x="131" y="179" width="14" height="4" rx="2" fill="#4387FF" fill-opacity="0.13"/>
<rect x="135" y="190" width="17" height="4" rx="2" fill="#FF7843" fill-opacity="0.13"/>
<rect x="126" y="213" width="17" height="4" rx="2" fill="url(#paint5_linear_189_8234)" fill-opacity="0.13"/>
<rect x="135" y="213" width="17" height="4" rx="2" fill="#4387FF" fill-opacity="0.13"/>
<rect x="118" y="224" width="18" height="4" rx="2" fill="#FF7843" fill-opacity="0.13"/>
<rect x="116" y="246" width="17" height="4" rx="2" fill="url(#paint6_linear_189_8234)" fill-opacity="0.13"/>
<rect x="117" y="144" width="17" height="4" rx="2" fill="#4387FF" fill-opacity="0.13"/>
<rect x="118" y="235" width="14" height="4" rx="2" fill="#4387FF" fill-opacity="0.13"/>
<rect x="127" y="224" width="18" height="4" rx="2" fill="#4387FF" fill-opacity="0.13"/>
<rect x="137" y="224" width="18" height="4" rx="2" fill="#FF7843" fill-opacity="0.13"/>
<rect x="125" y="235" width="14" height="4" rx="2" fill="url(#paint7_linear_189_8234)" fill-opacity="0.13"/>
<rect x="133" y="235" width="13" height="4" rx="2" fill="#4387FF" fill-opacity="0.13"/>
<rect x="126" y="246" width="17" height="4" rx="2" fill="url(#paint8_linear_189_8234)" fill-opacity="0.13"/>
<rect x="127" y="144" width="16" height="4" rx="2" fill="#FF7843" fill-opacity="0.13"/>
<rect x="135" y="246" width="17" height="4" rx="2" fill="#FF7843" fill-opacity="0.13"/>
<rect x="136" y="144" width="16" height="4" rx="2" fill="url(#paint9_linear_189_8234)" fill-opacity="0.13"/>
<path opacity="0.56" d="M466.837 1L81.1633 1C76.1025 1 72 5.12082 72 10.2041L72 291.296C72 296.379 76.1025 300.5 81.1633 300.5L274 300.5H466.837C471.897 300.5 476 296.379 476 291.296L476 10.2041C476 5.12082 471.897 1 466.837 1Z" fill="url(#paint10_linear_189_8234)" fill-opacity="0.1" stroke="#4387FF" stroke-opacity="0.51" stroke-miterlimit="10"/>
<path opacity="0.47" d="M220.04 24.3699C217.395 24.3699 214.861 23.3229 212.994 21.4494L205.17 13.6246C203.303 11.758 200.769 10.7041 198.124 10.7041L157.176 10.7041C154.532 10.7041 151.997 11.7511 150.13 13.6246L142.306 21.4494C140.439 23.316 137.905 24.3699 135.26 24.3699L82.5898 24.3699C81.164 24.3699 80 25.5271 80 26.9598L80 289.91C80 291.336 81.1571 292.5 82.5898 292.5L274.091 292.5H465.593C467.019 292.5 468.183 291.343 468.183 289.91L468.183 26.4294C468.183 24.9967 467.019 23.8395 465.586 23.8395L220.033 24.3699H220.04Z" fill="url(#paint11_linear_189_8234)" fill-opacity="0.07" stroke="#3F6EBF" stroke-miterlimit="10"/>
<path opacity="0.27" d="M296 22C293.816 22 291.723 21.1573 290.182 19.6492L283.722 13.3508C282.181 11.8483 280.088 11 277.904 11L244.096 11C241.912 11 239.819 11.8427 238.278 13.3508L231.818 19.6492C230.277 21.1517 228.184 22 226 22" stroke="#4387FF" stroke-miterlimit="10"/>
<path d="M103.593 52.6894L98 47.0963L103.634 41.4619" stroke="#4387FF" stroke-opacity="0.5" stroke-width="2" stroke-miterlimit="10" stroke-linecap="round" stroke-linejoin="round"/>
<path d="M122.114 41.4619L127.707 47.055L122.073 52.6894" stroke="#4387FF" stroke-opacity="0.5" stroke-width="2" stroke-miterlimit="10" stroke-linecap="round" stroke-linejoin="round"/>
<path d="M109.585 54.0048L115.35 40.7041" stroke="#4387FF" stroke-opacity="0.5" stroke-width="2" stroke-miterlimit="10" stroke-linecap="round" stroke-linejoin="round"/>
<path d="M90.4301 16.5646C92.3244 16.5646 93.8601 15.0288 93.8601 13.1343C93.8601 11.2399 92.3244 9.7041 90.4301 9.7041C88.5357 9.7041 87 11.2399 87 13.1343C87 15.0288 88.5357 16.5646 90.4301 16.5646Z" fill="#CBCBCB" fill-opacity="0.52"/>
<path d="M103.413 16.5646C105.308 16.5646 106.844 15.0288 106.844 13.1343C106.844 11.2399 105.308 9.7041 103.413 9.7041C101.519 9.7041 99.9834 11.2399 99.9834 13.1343C99.9834 15.0288 101.519 16.5646 103.413 16.5646Z" fill="#CBCBCB" fill-opacity="0.52"/>
<path d="M116.397 16.5646C118.291 16.5646 119.827 15.0288 119.827 13.1343C119.827 11.2399 118.291 9.7041 116.397 9.7041C114.502 9.7041 112.967 11.2399 112.967 13.1343C112.967 15.0288 114.502 16.5646 116.397 16.5646Z" fill="#CBCBCB" fill-opacity="0.52"/>
<g filter="url(#filter0_bd_189_8234)">
<rect x="342" y="283" width="76" height="27" rx="7" fill="#0055FF" fill-opacity="0.17" shape-rendering="crispEdges"/>
<rect x="342.5" y="283.5" width="75" height="26" rx="6.5" stroke="#4387FF" stroke-opacity="0.25" shape-rendering="crispEdges"/>
</g>
<g filter="url(#filter1_b_189_8234)">
<rect x="376" y="306" width="8" height="8" rx="4" fill="url(#paint12_linear_189_8234)" fill-opacity="0.63"/>
</g>
<defs>
<filter id="filter0_bd_189_8234" x="303.5" y="244.5" width="143" height="94" filterUnits="userSpaceOnUse" color-interpolation-filters="sRGB">
<feFlood flood-opacity="0" result="BackgroundImageFix"/>
<feGaussianBlur in="BackgroundImageFix" stdDeviation="10.2"/>
<feComposite in2="SourceAlpha" operator="in" result="effect1_backgroundBlur_189_8234"/>
<feColorMatrix in="SourceAlpha" type="matrix" values="0 0 0 0 0 0 0 0 0 0 0 0 0 0 0 0 0 0 127 0" result="hardAlpha"/>
<feOffset dx="-5" dy="-5"/>
<feGaussianBlur stdDeviation="16.75"/>
<feComposite in2="hardAlpha" operator="out"/>
<feColorMatrix type="matrix" values="0 0 0 0 0 0 0 0 0 0 0 0 0 0 0 0 0 0 0.23 0"/>
<feBlend mode="normal" in2="effect1_backgroundBlur_189_8234" result="effect2_dropShadow_189_8234"/>
<feBlend mode="normal" in="SourceGraphic" in2="effect2_dropShadow_189_8234" result="shape"/>
</filter>
<filter id="filter1_b_189_8234" x="372" y="302" width="16" height="16" filterUnits="userSpaceOnUse" color-interpolation-filters="sRGB">
<feFlood flood-opacity="0" result="BackgroundImageFix"/>
<feGaussianBlur in="BackgroundImageFix" stdDeviation="2"/>
<feComposite in2="SourceAlpha" operator="in" result="effect1_backgroundBlur_189_8234"/>
<feBlend mode="normal" in="SourceGraphic" in2="effect1_backgroundBlur_189_8234" result="shape"/>
</filter>
<linearGradient id="paint0_linear_189_8234" x1="135" y1="100" x2="135" y2="104" gradientUnits="userSpaceOnUse">
<stop stop-color="#4387FF"/>
<stop offset="1" stop-color="#285199"/>
</linearGradient>
<linearGradient id="paint1_linear_189_8234" x1="144" y1="122" x2="144" y2="126" gradientUnits="userSpaceOnUse">
<stop stop-color="#4387FF"/>
<stop offset="1" stop-color="#285199"/>
</linearGradient>
<linearGradient id="paint2_linear_189_8234" x1="124.5" y1="168" x2="124.5" y2="172" gradientUnits="userSpaceOnUse">
<stop stop-color="#FF7843"/>
<stop offset="1" stop-color="#994828"/>
</linearGradient>
<linearGradient id="paint3_linear_189_8234" x1="134.5" y1="168" x2="134.5" y2="172" gradientUnits="userSpaceOnUse">
<stop stop-color="#4387FF"/>
<stop offset="1" stop-color="#285199"/>
</linearGradient>
<linearGradient id="paint4_linear_189_8234" x1="134.5" y1="190" x2="134.5" y2="194" gradientUnits="userSpaceOnUse">
<stop stop-color="#4387FF"/>
<stop offset="1" stop-color="#285199"/>
</linearGradient>
<linearGradient id="paint5_linear_189_8234" x1="134.5" y1="213" x2="134.5" y2="217" gradientUnits="userSpaceOnUse">
<stop stop-color="#FF7843"/>
<stop offset="1" stop-color="#994828"/>
</linearGradient>
<linearGradient id="paint6_linear_189_8234" x1="124.5" y1="246" x2="124.5" y2="250" gradientUnits="userSpaceOnUse">
<stop stop-color="#FF7843"/>
<stop offset="1" stop-color="#994828"/>
</linearGradient>
<linearGradient id="paint7_linear_189_8234" x1="132" y1="235" x2="132" y2="239" gradientUnits="userSpaceOnUse">
<stop stop-color="#FF7843"/>
<stop offset="1" stop-color="#994828"/>
</linearGradient>
<linearGradient id="paint8_linear_189_8234" x1="126" y1="248" x2="143" y2="248" gradientUnits="userSpaceOnUse">
<stop stop-color="#4387FF"/>
<stop offset="1" stop-color="#285199"/>
</linearGradient>
<linearGradient id="paint9_linear_189_8234" x1="144" y1="144" x2="144" y2="148" gradientUnits="userSpaceOnUse">
<stop stop-color="#4387FF"/>
<stop offset="1" stop-color="#285199"/>
</linearGradient>
<linearGradient id="paint10_linear_189_8234" x1="274" y1="294.704" x2="274" y2="532.704" gradientUnits="userSpaceOnUse">
<stop stop-color="#4387FF"/>
<stop offset="1" stop-color="#285199"/>
</linearGradient>
<linearGradient id="paint11_linear_189_8234" x1="274.091" y1="10.7041" x2="274.091" y2="230.425" gradientUnits="userSpaceOnUse">
<stop stop-color="#4387FF"/>
<stop offset="1" stop-color="#285199"/>
</linearGradient>
<linearGradient id="paint12_linear_189_8234" x1="380" y1="306" x2="380" y2="314" gradientUnits="userSpaceOnUse">
<stop stop-color="#FF7843"/>
<stop offset="1" stop-color="#994828"/>
</linearGradient>
</defs>
</svg>
