<svg width="557" height="599" viewBox="0 0 557 599" fill="none" xmlns="http://www.w3.org/2000/svg">
<g opacity="0.1">
<rect x="0.257948" y="0.116382" width="27.0305" height="28.203" rx="4.8" transform="matrix(0.935527 -0.353256 0.354214 0.935165 520.182 334.045)" fill="#4387FF" fill-opacity="0.2" stroke="#4387FF" stroke-width="0.4"/>
<rect x="18.6556" y="300.895" width="27.0358" height="28.1975" rx="4.8" fill="#4387FF" fill-opacity="0.2" stroke="#4387FF" stroke-width="0.4"/>
<rect x="0.221727" y="-0.175685" width="19.5362" height="20.4439" rx="4.8" transform="matrix(0.115262 -0.993335 0.993376 0.11491 521.854 98.7298)" fill="#4387FF" fill-opacity="0.2" stroke="#4387FF" stroke-width="0.4"/>
<rect x="-0.0281486" y="-0.281223" width="44.8333" height="46.8071" rx="4.8" transform="matrix(-0.774496 -0.632579 0.633753 -0.773535 87.3827 109.388)" fill="#4387FF" fill-opacity="0.2" stroke="#4387FF" stroke-width="0.4"/>
<g filter="url(#filter0_d_189_8300)">
<path d="M522.858 327.796L546.908 338.915L536.168 363.321" stroke="#4387FF" stroke-width="4" stroke-miterlimit="10" stroke-linecap="round" stroke-linejoin="round" shape-rendering="crispEdges"/>
</g>
<g filter="url(#filter1_d_189_8300)">
<path d="M359.783 7.09333L374.004 7.10289L374.276 21.4041" stroke="#4387FF" stroke-width="4" stroke-miterlimit="10" stroke-linecap="round" stroke-linejoin="round" shape-rendering="crispEdges"/>
</g>
<g filter="url(#filter2_d_189_8300)">
<path d="M76.2659 111.195L72.3395 67.7163L116.121 62.906" stroke="#4387FF" stroke-width="6" stroke-miterlimit="10" stroke-linecap="round" stroke-linejoin="round" shape-rendering="crispEdges"/>
</g>
<g filter="url(#filter3_d_189_8300)">
<path d="M317.54 587.483L306.07 567.19L326.314 555.253" stroke="#4387FF" stroke-width="6" stroke-miterlimit="10" stroke-linecap="round" stroke-linejoin="round" shape-rendering="crispEdges"/>
</g>
<path d="M23.6705 335.883C23.294 335.507 23.1058 335.038 23.1058 334.474C23.1058 333.91 23.294 333.44 23.6705 333.064C24.0604 332.675 24.5377 332.48 25.1025 332.48C25.6537 332.494 26.1176 332.688 26.4941 333.064C27.61 334.178 28.5647 334.903 29.3579 335.239C30.1512 335.601 30.9647 335.568 31.7983 335.138C32.6319 334.709 33.6605 333.883 34.884 332.661L42.3462 325.211C43.2067 324.352 44.121 324.164 45.0891 324.647L49.6471 326.942L48.679 327.909L46.4202 323.318C45.9361 322.351 46.1244 321.438 46.9849 320.579L54.4471 313.129C55.442 312.135 56.195 311.263 56.7059 310.511C57.2303 309.772 57.5126 309.088 57.553 308.457C57.6202 307.826 57.4521 307.188 57.0488 306.544C56.6723 305.899 56.074 305.168 55.2538 304.349C54.8773 303.973 54.6891 303.503 54.6891 302.939C54.6891 302.375 54.8773 301.906 55.2538 301.53C55.6437 301.14 56.1143 300.952 56.6656 300.966C57.2303 300.966 57.7009 301.154 58.0773 301.53C59.7446 303.194 60.8202 304.778 61.3043 306.282C61.8017 307.772 61.7143 309.296 61.0421 310.853C60.3698 312.41 59.1126 314.109 57.2706 315.948L50.5345 322.673L51.8252 325.654C52.2286 326.701 52.0404 327.614 51.2605 328.392L50.1311 329.52C49.3513 330.299 48.437 330.487 47.3882 330.084L44.4437 328.755L37.7075 335.481C35.1126 338.071 32.7462 339.401 30.6084 339.468C28.4705 339.562 26.1579 338.367 23.6705 335.883Z" fill="#4387FF"/>
<path d="M514.767 474.107C514.488 473.999 514.285 473.8 514.158 473.51C514.03 473.221 514.02 472.937 514.129 472.658C514.241 472.37 514.442 472.162 514.732 472.034C515.018 471.916 515.3 471.911 515.579 472.019C516.404 472.339 517.059 472.496 517.542 472.489C518.032 472.496 518.442 472.294 518.773 471.885C519.104 471.476 519.445 470.819 519.797 469.914L521.943 464.397C522.191 463.761 522.618 463.457 523.224 463.486L526.085 463.635L525.807 464.351L523.607 462.502C523.14 462.115 523.03 461.603 523.277 460.967L525.423 455.45C525.71 454.714 525.899 454.095 525.991 453.594C526.093 453.095 526.083 452.68 525.961 452.346C525.853 452.007 525.622 451.717 525.269 451.477C524.93 451.231 524.457 450.991 523.85 450.756C523.572 450.648 523.369 450.449 523.241 450.159C523.113 449.869 523.104 449.585 523.212 449.307C523.324 449.018 523.523 448.815 523.81 448.698C524.1 448.57 524.384 448.56 524.662 448.668C525.896 449.146 526.807 449.717 527.396 450.38C527.988 451.033 528.289 451.836 528.296 452.788C528.303 453.741 528.042 454.898 527.512 456.26L525.575 461.24L526.912 462.48C527.356 462.927 527.466 463.438 527.242 464.015L526.917 464.85C526.693 465.426 526.266 465.73 525.636 465.76L523.823 465.744L521.885 470.724C521.139 472.643 520.225 473.861 519.142 474.379C518.065 474.911 516.607 474.82 514.767 474.107Z" fill="#105DE4"/>
<path d="M47.7298 437.166C48.0107 437.065 48.2947 437.081 48.5817 437.216C48.8687 437.35 49.0631 437.558 49.1649 437.838C49.2703 438.129 49.2558 438.418 49.1215 438.705C48.9835 438.981 48.7741 439.171 48.4932 439.272C47.6606 439.573 47.0645 439.885 46.7049 440.207C46.3317 440.524 46.1553 440.945 46.1757 441.47C46.1961 441.996 46.3716 442.715 46.7024 443.628L48.7199 449.194C48.9525 449.835 48.8307 450.344 48.3544 450.721L46.1017 452.487L45.8399 451.765L48.7143 451.713C49.3214 451.698 49.7413 452.011 49.974 452.653L51.9914 458.219C52.2604 458.961 52.5255 459.551 52.7866 459.99C53.0377 460.432 53.3191 460.739 53.6306 460.91C53.9358 461.095 54.3004 461.161 54.7243 461.11C55.1419 461.073 55.6566 460.943 56.2686 460.722C56.5495 460.621 56.8334 460.637 57.1204 460.772C57.4074 460.906 57.6018 461.114 57.7036 461.395C57.809 461.685 57.7927 461.969 57.6548 462.246C57.5204 462.533 57.3128 462.727 57.0319 462.828C55.788 463.278 54.7258 463.446 53.8453 463.333C52.9684 463.23 52.2136 462.823 51.5809 462.11C50.9481 461.397 50.3828 460.354 49.8847 458.98L48.0636 453.956L46.2395 453.901C45.6106 453.856 45.1907 453.542 44.9798 452.961L44.6745 452.118C44.4637 451.537 44.5855 451.028 45.04 450.591L46.4169 449.413L44.5958 444.389C43.8942 442.454 43.7806 440.935 44.255 439.834C44.7157 438.726 45.874 437.837 47.7298 437.166Z" fill="#105DE4"/>
<path d="M548.449 98.6757C548.156 98.9073 547.813 99.0003 547.419 98.9547C547.026 98.9091 546.713 98.7401 546.481 98.4477C546.24 98.1448 546.143 97.7968 546.188 97.4038C546.242 97.0212 546.416 96.714 546.708 96.4824C547.576 95.7958 548.159 95.19 548.458 94.665C548.775 94.1421 548.817 93.5733 548.584 92.9583C548.351 92.3433 547.858 91.5606 547.104 90.6102L542.504 84.8136C541.973 84.1452 541.916 83.4936 542.331 82.8589L544.301 79.8721L544.898 80.6241L541.511 81.8249C540.797 82.0837 540.175 81.8788 539.644 81.2104L535.044 75.4138C534.431 74.6409 533.882 74.0463 533.399 73.6299C532.926 73.2052 532.47 72.9533 532.033 72.8742C531.598 72.7763 531.139 72.8417 530.657 73.0704C530.177 73.2803 529.618 73.6375 528.98 74.1422C528.687 74.3738 528.344 74.4668 527.95 74.4212C527.556 74.3756 527.244 74.2066 527.011 73.9141C526.771 73.6113 526.678 73.2685 526.732 72.8859C526.777 72.4928 526.946 72.1805 527.239 71.9489C528.536 70.9231 529.728 70.3025 530.817 70.0873C531.898 69.8615 532.954 70.0456 533.987 70.6395C535.02 71.2334 536.105 72.2457 537.24 73.6766L541.393 78.9092L543.577 78.2518C544.341 78.0558 544.963 78.2606 545.444 78.8664L546.14 79.7437C546.621 80.3495 546.678 81.001 546.313 81.6984L545.147 83.6404L549.3 88.873C550.899 90.8887 551.636 92.6433 551.511 94.1367C551.404 95.6323 550.383 97.1453 548.449 98.6757Z" fill="#4387FF"/>
<path d="M45.0425 287.985C45.419 288.361 45.6072 288.831 45.6072 289.395C45.6072 289.959 45.419 290.429 45.0425 290.805C44.6526 291.194 44.1753 291.389 43.6106 291.389C43.0593 291.375 42.5954 291.18 42.219 290.805C41.103 289.69 40.1484 288.965 39.3551 288.63C38.5618 288.267 37.7484 288.301 36.9147 288.73C36.0811 289.16 35.0525 289.986 33.829 291.207L26.3668 298.658C25.5063 299.517 24.592 299.705 23.6239 299.222L19.0659 296.926L20.034 295.96L22.2928 300.551C22.7769 301.517 22.5886 302.43 21.7281 303.289L14.2659 310.74C13.271 311.734 12.518 312.606 12.0071 313.358C11.4827 314.096 11.2004 314.781 11.16 315.412C11.0928 316.043 11.2609 316.681 11.6642 317.325C12.0407 317.969 12.639 318.701 13.4592 319.52C13.8357 319.896 14.0239 320.366 14.0239 320.929C14.0239 321.493 13.8357 321.963 13.4592 322.339C13.0693 322.728 12.5987 322.916 12.0474 322.903C11.4827 322.903 11.0121 322.715 10.6357 322.339C8.96843 320.674 7.8928 319.09 7.40876 317.587C6.91128 316.097 6.99868 314.573 7.67095 313.016C8.34322 311.458 9.60037 309.76 11.4424 307.921L18.1785 301.195L16.8878 298.215C16.4844 297.168 16.6727 296.255 17.4525 295.476L18.5819 294.349C19.3617 293.57 20.276 293.382 21.3248 293.785L24.2693 295.114L31.0055 288.388C33.6004 285.797 35.9668 284.468 38.1047 284.401C40.2425 284.307 42.5551 285.502 45.0425 287.985Z" fill="#4387FF"/>
<path d="M516.855 79.7395C517.147 79.5078 517.491 79.4148 517.884 79.4604C518.278 79.506 518.591 79.6751 518.823 79.9675C519.063 80.2704 519.161 80.6183 519.115 81.0114C519.061 81.394 518.888 81.7011 518.595 81.9328C517.727 82.6194 517.144 83.2252 516.846 83.7502C516.529 84.273 516.487 84.8419 516.719 85.4569C516.952 86.0718 517.445 86.8545 518.2 87.805L522.8 93.6015C523.33 94.27 523.388 94.9215 522.972 95.5562L521.002 98.5431L520.405 97.7911L523.793 96.5902C524.507 96.3315 525.129 96.5364 525.659 97.2048L530.259 103.001C530.872 103.774 531.421 104.369 531.905 104.785C532.378 105.21 532.833 105.462 533.27 105.541C533.705 105.639 534.164 105.573 534.647 105.345C535.127 105.135 535.686 104.778 536.324 104.273C536.616 104.041 536.96 103.948 537.353 103.994C537.747 104.04 538.06 104.209 538.292 104.501C538.532 104.804 538.626 105.147 538.572 105.529C538.526 105.922 538.357 106.235 538.064 106.466C536.768 107.492 535.575 108.113 534.486 108.328C533.406 108.554 532.349 108.37 531.316 107.776C530.283 107.182 529.199 106.169 528.063 104.739L523.911 99.506L521.726 100.163C520.962 100.359 520.34 100.155 519.86 99.5488L519.163 98.6715C518.683 98.0657 518.625 97.4141 518.991 96.7168L520.156 94.7748L516.004 89.5422C514.404 87.5265 513.667 85.7719 513.793 84.2785C513.899 82.7829 514.92 81.2699 516.855 79.7395Z" fill="#4387FF"/>
</g>
<defs>
<filter id="filter0_d_189_8300" x="516.857" y="325.796" width="36.0521" height="47.525" filterUnits="userSpaceOnUse" color-interpolation-filters="sRGB">
<feFlood flood-opacity="0" result="BackgroundImageFix"/>
<feColorMatrix in="SourceAlpha" type="matrix" values="0 0 0 0 0 0 0 0 0 0 0 0 0 0 0 0 0 0 127 0" result="hardAlpha"/>
<feOffset dy="4"/>
<feGaussianBlur stdDeviation="2"/>
<feComposite in2="hardAlpha" operator="out"/>
<feColorMatrix type="matrix" values="0 0 0 0 0 0 0 0 0 0 0 0 0 0 0 0 0 0 0.25 0"/>
<feBlend mode="normal" in2="BackgroundImageFix" result="effect1_dropShadow_189_8300"/>
<feBlend mode="normal" in="SourceGraphic" in2="effect1_dropShadow_189_8300" result="shape"/>
</filter>
<filter id="filter1_d_189_8300" x="353.782" y="5.09485" width="26.4961" height="26.3077" filterUnits="userSpaceOnUse" color-interpolation-filters="sRGB">
<feFlood flood-opacity="0" result="BackgroundImageFix"/>
<feColorMatrix in="SourceAlpha" type="matrix" values="0 0 0 0 0 0 0 0 0 0 0 0 0 0 0 0 0 0 127 0" result="hardAlpha"/>
<feOffset dy="4"/>
<feGaussianBlur stdDeviation="2"/>
<feComposite in2="hardAlpha" operator="out"/>
<feColorMatrix type="matrix" values="0 0 0 0 0 0 0 0 0 0 0 0 0 0 0 0 0 0 0.25 0"/>
<feBlend mode="normal" in2="BackgroundImageFix" result="effect1_dropShadow_189_8300"/>
<feBlend mode="normal" in="SourceGraphic" in2="effect1_dropShadow_189_8300" result="shape"/>
</filter>
<filter id="filter2_d_189_8300" x="65.3371" y="59.908" width="57.7867" height="62.2853" filterUnits="userSpaceOnUse" color-interpolation-filters="sRGB">
<feFlood flood-opacity="0" result="BackgroundImageFix"/>
<feColorMatrix in="SourceAlpha" type="matrix" values="0 0 0 0 0 0 0 0 0 0 0 0 0 0 0 0 0 0 127 0" result="hardAlpha"/>
<feOffset dy="4"/>
<feGaussianBlur stdDeviation="2"/>
<feComposite in2="hardAlpha" operator="out"/>
<feColorMatrix type="matrix" values="0 0 0 0 0 0 0 0 0 0 0 0 0 0 0 0 0 0 0.25 0"/>
<feBlend mode="normal" in2="BackgroundImageFix" result="effect1_dropShadow_189_8300"/>
<feBlend mode="normal" in="SourceGraphic" in2="effect1_dropShadow_189_8300" result="shape"/>
</filter>
<filter id="filter3_d_189_8300" x="299.069" y="552.254" width="34.2458" height="46.2294" filterUnits="userSpaceOnUse" color-interpolation-filters="sRGB">
<feFlood flood-opacity="0" result="BackgroundImageFix"/>
<feColorMatrix in="SourceAlpha" type="matrix" values="0 0 0 0 0 0 0 0 0 0 0 0 0 0 0 0 0 0 127 0" result="hardAlpha"/>
<feOffset dy="4"/>
<feGaussianBlur stdDeviation="2"/>
<feComposite in2="hardAlpha" operator="out"/>
<feColorMatrix type="matrix" values="0 0 0 0 0 0 0 0 0 0 0 0 0 0 0 0 0 0 0.25 0"/>
<feBlend mode="normal" in2="BackgroundImageFix" result="effect1_dropShadow_189_8300"/>
<feBlend mode="normal" in="SourceGraphic" in2="effect1_dropShadow_189_8300" result="shape"/>
</filter>
</defs>
</svg>
