<svg width="29" height="30" viewBox="0 0 29 30" fill="none" xmlns="http://www.w3.org/2000/svg">
<path d="M13.184 0.169312C13.839 0.169312 14.4939 0.169312 15.1488 0.169312C15.5932 0.241978 16.061 0.290422 16.5054 0.363088C19.0549 0.823307 21.3705 1.88908 23.2884 3.68151C27.1477 7.24215 28.7383 11.7232 27.9664 17.0279C27.4284 20.7338 25.6508 23.7616 22.7739 26.0627C19.359 28.824 15.4763 29.7202 11.2427 28.8482C8.55288 28.2911 6.23729 26.9589 4.29593 24.9485C2.21424 22.7927 0.904414 20.2252 0.366449 17.2216C0.27289 16.713 0.226114 16.2043 0.155945 15.6957C0.155945 15.0174 0.155945 14.3392 0.155945 13.661C0.226114 13.2008 0.272894 12.7406 0.343063 12.2561C0.834248 9.2768 2.12068 6.68505 4.1556 4.52928C6.23729 2.32507 8.76338 0.944417 11.6871 0.38731C12.1783 0.290422 12.6695 0.241978 13.1607 0.169312H13.184ZM12.0146 15.187V23.5678H15.3827V15.187H17.6515C17.7451 14.1939 17.8386 13.225 17.9556 12.2319H15.4061C15.4061 11.5779 15.4061 10.9481 15.4061 10.3184C15.4061 9.95502 15.6634 9.7128 16.0142 9.68858C16.2247 9.68858 16.4352 9.68858 16.6457 9.68858C17.0668 9.68858 17.4644 9.68858 17.8854 9.68858V6.8546C17.8854 6.8546 17.8152 6.8546 17.7685 6.8546C16.8329 6.8546 15.9207 6.83038 14.9851 6.8546C13.4647 6.92727 12.3186 7.94459 12.1081 9.51903C11.9912 10.3184 12.0379 11.1419 12.0146 11.9412C12.0146 12.0381 12.0146 12.1592 12.0146 12.3046H10.4474V15.2597H12.038L12.0146 15.187Z" fill="url(#paint0_linear_30_916)" fill-opacity="0.5"/>
<defs>
<linearGradient id="paint0_linear_30_916" x1="14.1559" y1="0.169312" x2="14.1559" y2="29.1693" gradientUnits="userSpaceOnUse">
<stop stop-color="white"/>
<stop offset="1" stop-color="#999999"/>
</linearGradient>
</defs>
</svg>
