<svg width="28" height="29" viewBox="0 0 28 29" fill="none" xmlns="http://www.w3.org/2000/svg">
<g clip-path="url(#clip0_30_914)">
<path d="M16.6084 21.3875C17.2542 21.2467 17.8805 21.1377 18.4919 20.9731C21.0629 20.281 22.4744 18.5437 22.8361 15.8996C23.002 14.6858 23.0788 13.456 22.6137 12.2923C22.3773 11.6996 21.9898 11.1707 21.6853 10.6043C21.6203 10.4834 21.5616 10.3116 21.5952 10.1899C21.8935 9.12158 21.8152 8.07317 21.5248 7.01601C21.4152 6.61828 21.2069 6.52283 20.8429 6.57215C20.013 6.68431 19.2208 6.95794 18.5546 7.44158C17.8367 7.9626 17.1564 8.02067 16.314 7.83215C14.4931 7.42408 12.6572 7.54101 10.8488 7.99283C10.5779 8.06044 10.3893 8.00635 10.1662 7.85919C9.26508 7.26737 8.32955 6.74794 7.24293 6.59044C6.69258 6.5101 6.63465 6.5459 6.47103 7.09476C6.16649 8.1209 6.13205 9.15022 6.40918 10.1907C6.43971 10.306 6.41779 10.485 6.34655 10.5725C5.27637 11.8874 4.94913 13.4154 5.07909 15.0748C5.19339 16.536 5.51201 17.9289 6.45615 19.0982C7.46448 20.3462 8.84155 20.8919 10.3446 21.1894C10.6766 21.2546 11.0124 21.2992 11.2496 21.3382C11.0281 21.9292 10.8128 22.5258 10.5764 23.1144C10.5349 23.2186 10.419 23.3189 10.3141 23.365C8.81258 24.0212 7.39559 23.5646 6.52739 22.1456C6.10073 21.4479 5.55899 20.8895 4.75185 20.6859C4.49507 20.6215 4.20776 20.6246 3.94315 20.6636C3.67228 20.7034 3.60573 20.8967 3.79362 21.1218C3.88522 21.2316 3.99325 21.3382 4.1146 21.4098C4.84814 21.8409 5.37188 22.4804 5.63571 23.2687C6.22834 25.0386 7.95612 25.605 9.4741 25.4538C9.79508 25.422 10.1145 25.3727 10.5059 25.3226C10.5059 26.2517 10.5325 27.1498 10.4957 28.0454C10.4746 28.5609 10.026 28.7804 9.47097 28.5951C8.28806 28.199 7.17717 27.6445 6.16336 26.9095C1.93823 23.8446 -0.147327 19.6558 0.00768082 14.3931C0.207312 7.63169 5.23644 1.9076 11.7961 0.846466C19.3312 -0.372966 26.4701 4.81419 27.7791 12.4601C28.825 18.5692 26.092 24.4945 20.7904 27.5515C20.0921 27.954 19.3367 28.2642 18.5874 28.5649C17.8797 28.8489 17.4672 28.5378 17.4695 27.771C17.4734 26.5914 17.4907 25.4125 17.4985 24.2328C17.5055 23.1916 17.3576 22.1981 16.6076 21.3875H16.6084Z" fill="url(#paint0_linear_30_914)" fill-opacity="0.5"/>
</g>
<defs>
<linearGradient id="paint0_linear_30_914" x1="13.9996" y1="0.668823" x2="13.9996" y2="28.6685" gradientUnits="userSpaceOnUse">
<stop stop-color="white"/>
<stop offset="1" stop-color="#999999"/>
</linearGradient>
<clipPath id="clip0_30_914">
<rect width="28" height="28" fill="white" transform="translate(0 0.669312)"/>
</clipPath>
</defs>
</svg>
