<svg width="29" height="30" viewBox="0 0 29 30" fill="none" xmlns="http://www.w3.org/2000/svg">
<path d="M24.3985 4.70528C22.2471 2.24178 19.5519 0.763684 16.4312 0.19708C15.982 0.123175 15.5328 0.0739049 15.0836 0H13.0977C12.6012 0.0739049 12.1283 0.14781 11.6319 0.221715C8.34563 0.837588 5.6268 2.4635 3.42809 5.0748C1.60766 7.24268 0.520124 9.78008 0.11821 12.6377C0.0709265 12.958 0.047284 13.3029 0 13.6231V15.6925C0.070926 16.2098 0.11821 16.7271 0.212778 17.2445C0.803828 20.6441 2.3642 23.4525 4.84661 25.7189C6.9271 27.6404 9.36223 28.7983 12.1283 29.1924C16.0293 29.7344 19.5756 28.7736 22.6963 26.2609C25.4861 23.9944 27.2592 21.0382 27.8976 17.4169C28.725 12.6131 27.5666 8.32661 24.3985 4.70528ZM22.1053 18.2052C22.058 19.7326 21.6088 21.0629 20.403 22.0236C19.5283 22.7134 18.5353 22.9844 17.4714 23.009C15.2254 23.0337 12.9558 23.0583 10.7098 23.009C9.24402 22.9844 7.94371 22.4917 6.99803 21.2353C6.33605 20.3238 6.07599 19.2892 6.05235 18.1806C6.02871 15.8403 6.00507 13.4753 6.05235 11.135C6.07599 9.60763 6.54884 8.22807 7.77822 7.26731C8.62933 6.57753 9.64594 6.33118 10.6862 6.30655C12.9322 6.28191 15.2018 6.25728 17.4478 6.30655C18.9136 6.33118 20.1903 6.79925 21.1359 8.05563C21.6797 8.79468 21.9871 9.63227 22.0343 10.5438C22.1289 11.9233 22.1289 13.2782 22.1998 14.6578C22.1762 14.6578 22.1289 14.6578 22.1053 14.6578C22.1053 15.8403 22.1289 17.0228 22.1053 18.2052Z" fill="url(#paint0_linear_30_915)" fill-opacity="0.5"/>
<path d="M17.8261 7.85789C16.573 7.78399 15.32 7.75935 14.067 7.71008C12.814 7.75935 11.5373 7.78399 10.2843 7.85789C8.91303 7.9318 7.9437 8.79402 7.66 10.1982C7.51815 10.8634 7.49451 11.5778 7.49451 12.2675C7.49451 14.3862 7.49451 16.5048 7.56543 18.6234C7.61272 20.0522 8.46383 21.0869 9.81142 21.3825C10.4498 21.5303 11.1117 21.5549 11.7501 21.5549C13.7833 21.5549 15.8401 21.5549 17.8733 21.481C19.2446 21.4318 20.2375 20.5449 20.5212 19.1407C20.6631 18.4756 20.6867 17.7611 20.6867 17.0714C20.6867 14.9774 20.6867 12.8834 20.6158 10.7648C20.5449 9.08964 19.4337 7.95643 17.8497 7.85789H17.8261ZM14.067 18.9683C11.7501 18.9683 9.92963 17.0467 9.92963 14.6325C9.92963 12.2429 11.7737 10.346 14.0906 10.346C16.3839 10.346 18.2043 12.2675 18.2043 14.6818C18.2043 17.0714 16.3603 18.9929 14.067 18.9683ZM18.3935 11.1836C17.8733 11.1836 17.4241 10.7402 17.4241 10.1982C17.4241 9.63161 17.8497 9.16355 18.3935 9.18818C18.9136 9.18818 19.3628 9.65624 19.3628 10.1982C19.3628 10.7402 18.9372 11.2082 18.3935 11.2082V11.1836Z" fill="url(#paint1_linear_30_915)" fill-opacity="0.5"/>
<path d="M14.1143 11.8492C12.6012 11.8492 11.3954 13.081 11.3954 14.633C11.3954 16.185 12.5775 17.4414 14.067 17.466C15.5801 17.466 16.7858 16.2343 16.7858 14.6823C16.7858 13.1303 15.6037 11.8739 14.1143 11.8492Z" fill="url(#paint2_linear_30_915)" fill-opacity="0.5"/>
<defs>
<linearGradient id="paint0_linear_30_915" x1="14.078" y1="0" x2="14.078" y2="29.3387" gradientUnits="userSpaceOnUse">
<stop stop-color="white"/>
<stop offset="1" stop-color="#999999"/>
</linearGradient>
<linearGradient id="paint1_linear_30_915" x1="14.0906" y1="7.71008" x2="14.0906" y2="21.5549" gradientUnits="userSpaceOnUse">
<stop stop-color="white"/>
<stop offset="1" stop-color="#999999"/>
</linearGradient>
<linearGradient id="paint2_linear_30_915" x1="14.0906" y1="11.8492" x2="14.0906" y2="17.466" gradientUnits="userSpaceOnUse">
<stop stop-color="white"/>
<stop offset="1" stop-color="#999999"/>
</linearGradient>
</defs>
</svg>
