<svg width="28" height="29" viewBox="0 0 28 29" fill="none" xmlns="http://www.w3.org/2000/svg">
<path d="M13.0125 0.669312C13.6714 0.669312 14.3303 0.669312 14.9891 0.669312C15.4362 0.739844 15.8833 0.786866 16.3304 0.857398C19.46 1.39815 22.1425 2.8088 24.2603 5.15989C27.4134 8.61598 28.5664 12.6834 27.7428 17.2915C27.131 20.7476 25.3427 23.5689 22.5661 25.7319C19.46 28.13 15.9304 29.0469 12.0478 28.5297C9.31821 28.177 6.89453 27.0485 4.80029 25.2146C2.32955 23.0516 0.776517 20.3479 0.188247 17.1269C0.117654 16.6567 0.0705925 16.1395 0 15.6457C0 14.9874 0 14.3291 0 13.6708C0.0470617 13.3652 0.0705925 13.036 0.117654 12.7304C0.517678 10.0031 1.6001 7.5815 3.41197 5.51255C5.57681 3.04391 8.30638 1.46868 11.5772 0.880909C12.0478 0.786866 12.5419 0.739844 13.0361 0.669312H13.0125ZM15.2244 21.8291C15.2244 21.7115 15.2244 21.594 15.2244 21.4764C15.2244 19.6896 15.2244 17.9263 15.2244 16.1395C15.2244 15.5987 15.3421 15.0815 15.6951 14.6583C16.1892 14.094 16.801 13.9059 17.5305 14.047C18.1893 14.1881 18.5423 14.6583 18.6835 15.2931C18.7541 15.5517 18.8011 15.8338 18.8011 16.0924C18.8011 17.8793 18.8011 19.6896 18.8011 21.4764C18.8011 21.5705 18.8011 21.688 18.8011 21.7821H22.2131C22.2131 21.6645 22.2131 21.547 22.2131 21.4529C22.2131 19.8307 22.2131 18.2084 22.2131 16.5862C22.2131 16.0219 22.2131 15.4341 22.1425 14.8699C21.9307 13.1066 20.9424 11.5078 18.6599 11.3197C17.3187 11.2022 16.1892 11.6254 15.3892 12.7304C15.3421 12.8009 15.295 12.8479 15.2009 12.9655V11.5548H11.8125V21.7586H15.2009L15.2244 21.8291ZM6.54157 21.8291H9.90648V11.6019H6.54157V21.8291ZM6.32979 8.4279C6.32979 9.46237 7.12984 10.1912 8.21226 10.1912C9.34174 10.1912 10.1418 9.46237 10.1418 8.4279C10.1418 7.39342 9.34174 6.64107 8.23579 6.64107C7.10631 6.64107 6.30626 7.36991 6.30626 8.4279H6.32979Z" fill="url(#paint0_linear_340_473)" fill-opacity="0.5"/>
<defs>
<linearGradient id="paint0_linear_340_473" x1="14" y1="0.669312" x2="14" y2="28.6693" gradientUnits="userSpaceOnUse">
<stop stop-color="white"/>
<stop offset="1" stop-color="#999999"/>
</linearGradient>
</defs>
</svg>
