<svg width="62" height="47" viewBox="0 0 62 47" fill="none" xmlns="http://www.w3.org/2000/svg">
<g clip-path="url(#clip0_1_1298)">
<path d="M7.44401 26.3187L4.61475 29.1481L7.44401 26.3187Z" fill="#4387FF"/>
<path d="M23.4606 36.7018L27.2701 40.5185C28.2873 41.5377 28.2873 43.1886 27.2701 44.2078L25.2037 46.2781C24.2395 47.2442 22.6765 47.2442 21.7122 46.2781L5.99762 30.5336C4.45053 28.9676 4.45053 26.4408 6.00821 24.8802L8.83747 22.0455L23.4606 36.6965V36.7018Z" fill="url(#paint0_linear_1_1298)"/>
<path d="M33.5538 26.4302C32.1392 25.0129 29.8503 25.0129 28.4357 26.4302L22.703 32.1738L30.9947 40.4813L39.2865 32.1738L33.5538 26.4302Z" fill="url(#paint1_linear_1_1298)"/>
<path d="M38.5394 36.7018L34.73 40.5185C33.7127 41.5377 33.7127 43.1886 34.73 44.2078L36.7963 46.2781C37.7606 47.2442 39.3236 47.2442 40.2878 46.2781L56.0024 30.5336C57.5495 28.9676 57.5495 26.4408 55.9918 24.8802L53.1626 22.0455L38.5394 36.6965V36.7018Z" fill="url(#paint2_linear_1_1298)"/>
<path d="M61.2688 25.2571L56.0024 30.5336C56.3362 29.2118 55.9918 27.7573 54.9639 26.7222L34.6823 6.40187C33.7021 5.41983 33.7021 3.82733 34.6823 2.84528L36.7804 0.737874C37.7606 -0.244168 39.3553 -0.244168 40.3355 0.737874L61.2688 21.7111C62.2437 22.6931 62.2437 24.2803 61.2688 25.2571Z" fill="#4785F4"/>
<path d="M27.3232 6.40187L7.0415 26.7222C6.01364 27.7573 5.66926 29.2118 5.99775 30.5336L4.62021 29.1481L0.736596 25.2571C-0.243579 24.2803 -0.243579 22.6931 0.736596 21.7111L21.6699 0.737874C22.6501 -0.244168 24.2396 -0.244168 25.2251 0.737874L27.3232 2.84528C28.3033 3.82733 28.3033 5.41983 27.3232 6.40187Z" fill="#4785F4"/>
</g>
<defs>
<linearGradient id="paint0_linear_1_1298" x1="16.4351" y1="55.1324" x2="16.4351" y2="2.31976" gradientUnits="userSpaceOnUse">
<stop offset="0.16" stop-color="#4387FF"/>
<stop offset="0.79" stop-color="#000041"/>
</linearGradient>
<linearGradient id="paint1_linear_1_1298" x1="30.9947" y1="45.3969" x2="30.9947" y2="13.4248" gradientUnits="userSpaceOnUse">
<stop offset="0.16" stop-color="#4387FF"/>
<stop offset="0.79" stop-color="#000041"/>
</linearGradient>
<linearGradient id="paint2_linear_1_1298" x1="45.5649" y1="55.1324" x2="45.5649" y2="2.32507" gradientUnits="userSpaceOnUse">
<stop offset="0.16" stop-color="#4387FF"/>
<stop offset="0.79" stop-color="#000041"/>
</linearGradient>
<clipPath id="clip0_1_1298">
<rect width="62" height="47" fill="white"/>
</clipPath>
</defs>
</svg>
