<svg width="18" height="94" viewBox="0 0 18 94" fill="none" xmlns="http://www.w3.org/2000/svg">
<rect x="0.5" y="0.5" width="17" height="22" rx="7.5" stroke="#4387FF"/>
<path d="M8.5 12C8.5 12.2761 8.72386 12.5 9 12.5C9.27614 12.5 9.5 12.2761 9.5 12L8.5 12ZM8.5 1L8.5 12L9.5 12L9.5 1L8.5 1Z" fill="#4387FF"/>
<path d="M9.5 33C9.5 32.7239 9.27614 32.5 9 32.5C8.72386 32.5 8.5 32.7239 8.5 33L9.5 33ZM8.64645 93.3536C8.84171 93.5488 9.15829 93.5488 9.35356 93.3536L12.5355 90.1716C12.7308 89.9763 12.7308 89.6597 12.5355 89.4645C12.3403 89.2692 12.0237 89.2692 11.8284 89.4645L9 92.2929L6.17158 89.4645C5.97631 89.2692 5.65973 89.2692 5.46447 89.4645C5.26921 89.6597 5.26921 89.9763 5.46447 90.1716L8.64645 93.3536ZM8.5 33L8.5 93L9.5 93L9.5 33L8.5 33Z" fill="#4387FF" fill-opacity="0.25"/>
</svg>
