<svg width="104" height="47" viewBox="0 0 104 47" fill="none" xmlns="http://www.w3.org/2000/svg">
<g clip-path="url(#clip0_1_1351)">
<path d="M80.6097 46.75L23.3903 46.75C10.6114 46.75 0.25 36.3417 0.25 23.5C0.25 10.6583 10.6114 0.249996 23.3903 0.249996L80.6097 0.249996C93.3886 0.249996 103.75 10.6583 103.75 23.5C103.75 36.3417 93.3886 46.75 80.6097 46.75Z" fill="url(#paint0_linear_1_1351)" stroke="#4387FF" stroke-width="0.5"/>
<path d="M86.1722 31.8831C80.0247 31.3074 75.0828 26.2704 74.5755 20.0881C74.3248 17.0419 75.1306 14.2056 76.6585 11.885C76.9569 11.4353 76.5212 10.8536 76.0079 11.0335C70.5408 12.9404 66.7509 18.4391 67.4253 24.7114C68.0759 30.7378 72.964 35.5709 78.9742 36.1466C82.8239 36.5123 86.3572 35.1751 88.9356 32.7946C89.2996 32.4588 89.043 31.8471 88.5476 31.8951C87.7717 31.9611 86.9779 31.9611 86.1662 31.8891L86.1722 31.8831Z" fill="#023C85"/>
<path d="M79.7801 18.4692L80.1024 19.3447C80.162 19.5126 80.2933 19.6385 80.4605 19.7045L81.3319 20.0283L80.4605 20.3521C80.2933 20.4121 80.168 20.544 80.1024 20.7119L79.7801 21.5874L79.4578 20.7119C79.3981 20.544 79.2668 20.4181 79.0997 20.3521L78.2283 20.0283L79.0997 19.7045C79.2668 19.6445 79.3921 19.5126 79.4578 19.3447L79.7801 18.4692Z" fill="#023C85"/>
<path d="M85.3069 20.7178L85.7904 22.031C85.8799 22.2828 86.0769 22.4747 86.3275 22.5707L87.6346 23.0564L86.3275 23.5421C86.0769 23.632 85.8859 23.8299 85.7904 24.0818L85.3069 25.395L84.8235 24.0818C84.734 23.8299 84.537 23.638 84.2863 23.5421L82.9792 23.0564L84.2863 22.5707C84.537 22.4807 84.728 22.2828 84.8235 22.031L85.3069 20.7178Z" fill="#023C85"/>
<path opacity="0.34" d="M23.4382 28.489C26.1807 28.489 28.4039 26.2554 28.4039 23.5C28.4039 20.7446 26.1807 18.511 23.4382 18.511C20.6956 18.511 18.4724 20.7446 18.4724 23.5C18.4724 26.2554 20.6956 28.489 23.4382 28.489Z" fill="#4387FF"/>
<g opacity="0.34">
<path d="M24.1005 31.979L23.5215 36.1105L22.8889 31.985C22.7815 31.0615 24.19 31.0495 24.1005 31.979Z" fill="#4387FF"/>
<path d="M17.9411 29.9641L14.6286 32.4766L17.0816 29.1126C17.6546 28.3871 18.6573 29.3765 17.9411 29.9641Z" fill="#4387FF"/>
<path d="M15.0046 24.1716L10.8923 23.59L14.9986 22.9544C15.9178 22.8464 15.9297 24.2616 15.0046 24.1716Z" fill="#4387FF"/>
<path d="M17.004 17.9773L14.5032 14.6493L17.8515 17.1138C18.5737 17.6895 17.5889 18.6969 17.004 17.9773Z" fill="#4387FF"/>
<path d="M22.7755 15.027L23.3544 10.8955L23.9871 15.021C24.0945 15.9445 22.686 15.9565 22.7755 15.027Z" fill="#4387FF"/>
<path d="M28.9349 17.0358L32.2474 14.5233L29.7944 17.8873C29.2214 18.6129 28.2187 17.6235 28.9349 17.0358Z" fill="#4387FF"/>
<path d="M31.8774 22.8344L35.9896 23.4161L31.8833 24.0517C30.9642 24.1596 30.9523 22.7445 31.8774 22.8344Z" fill="#4387FF"/>
<path d="M29.872 29.0227L32.3727 32.3507L29.0244 29.8862C28.3023 29.3106 29.2871 28.3032 29.872 29.0227Z" fill="#4387FF"/>
</g>
<path d="M80.4784 42.089C90.6935 42.089 98.9745 33.7691 98.9745 23.506C98.9745 13.243 90.6935 4.9231 80.4784 4.9231C70.2632 4.9231 61.9822 13.243 61.9822 23.506C61.9822 33.7691 70.2632 42.089 80.4784 42.089Z" fill="url(#paint1_linear_1_1351)"/>
<path d="M86.1722 31.9969C80.0247 31.4212 75.0828 26.3842 74.5755 20.2019C74.3248 17.1557 75.1306 14.3194 76.6585 11.9988C76.9569 11.5491 76.5212 10.9674 76.0079 11.1473C70.5408 13.0542 66.7509 18.5529 67.4253 24.8251C68.0759 30.8516 72.964 35.6847 78.9742 36.2603C82.8239 36.6261 86.3572 35.2889 88.9356 32.9083C89.2996 32.5725 89.043 31.9609 88.5476 32.0089C87.7717 32.0748 86.9779 32.0748 86.1662 32.0029L86.1722 31.9969Z" fill="black"/>
<path d="M79.7801 18.583L80.1024 19.4585C80.162 19.6264 80.2933 19.7523 80.4605 19.8183L81.3319 20.1421L80.4605 20.4659C80.2933 20.5259 80.168 20.6578 80.1024 20.8257L79.7801 21.7011L79.4578 20.8257C79.3981 20.6578 79.2668 20.5318 79.0997 20.4659L78.2283 20.1421L79.0997 19.8183C79.2668 19.7583 79.3921 19.6264 79.4578 19.4585L79.7801 18.583Z" fill="black"/>
<path d="M85.3069 20.8315L85.7904 22.1448C85.8799 22.3966 86.0769 22.5885 86.3275 22.6844L87.6346 23.1701L86.3275 23.6559C86.0769 23.7458 85.8859 23.9437 85.7904 24.1955L85.3069 25.5088L84.8235 24.1955C84.734 23.9437 84.537 23.7518 84.2863 23.6559L82.9792 23.1701L84.2863 22.6844C84.537 22.5945 84.728 22.3966 84.8235 22.1448L85.3069 20.8315Z" fill="black"/>
</g>
<defs>
<linearGradient id="paint0_linear_1_1351" x1="52" y1="-34.5" x2="52" y2="47" gradientUnits="userSpaceOnUse">
<stop stop-color="#002047"/>
<stop offset="0.739531" stop-color="#00469E" stop-opacity="0.150368"/>
<stop offset="1" stop-color="#004DAD" stop-opacity="0"/>
</linearGradient>
<linearGradient id="paint1_linear_1_1351" x1="57.4521" y1="45.2731" x2="100.877" y2="4.60422" gradientUnits="userSpaceOnUse">
<stop offset="0.11" stop-color="#002F94"/>
<stop offset="0.21" stop-color="#0D40A9"/>
<stop offset="0.41" stop-color="#245FCE"/>
<stop offset="0.59" stop-color="#3575E9"/>
<stop offset="0.75" stop-color="#3F82F9"/>
<stop offset="0.88" stop-color="#4387FF"/>
</linearGradient>
<clipPath id="clip0_1_1351">
<rect width="104" height="47" fill="white"/>
</clipPath>
</defs>
</svg>
