<svg width="75" height="84" viewBox="0 0 75 84" fill="none" xmlns="http://www.w3.org/2000/svg">
<g filter="url(#filter0_d_13_455)">
<path d="M28.7032 38.963C28.7032 38.9644 28.7044 38.9655 28.7057 38.9655C28.9853 38.9655 29.2553 38.9655 29.5108 38.9655C30.947 38.9754 32.0882 38.9853 32.417 38.5583C32.9054 37.9277 32.4025 35.7281 32.2381 35.0032C31.5176 31.8602 31.2903 29.6208 32.388 28.2008C33.2294 27.1134 34.7091 26.6268 37.1849 26.6268C39.4625 26.6268 41.0921 27.3219 42.0205 28.7023C43.0263 30.1968 43.094 32.3567 42.2043 34.7847C41.6965 36.17 41.2468 37.6745 41.7255 38.3448C42.1027 38.8662 43.2052 39.0846 44.9074 38.9704C47.6018 38.7914 50.4299 38.3563 52.3768 38.0091C53.2111 37.8603 53.8486 37.1886 53.9902 36.3531C54.4419 33.6886 55.097 30.3044 54.8687 28.8016C54.5157 26.4778 54.3658 24.9286 52.1028 25.5443C49.8397 26.165 43.0457 29.2633 43.0457 21.0508C43.0457 12.8382 49.535 15.0031 51.3484 15.7826C53.1618 16.5622 55.4683 16.0904 54.9171 11.4429C54.6042 8.80242 54.2259 6.76167 53.9572 5.49045C53.7704 4.60642 52.9839 4 52.0803 4H23.0001C21.8956 4 21.0001 4.89543 21.0001 6V36.2552C21.0001 37.1761 21.628 37.9821 22.5284 38.1748C24.2933 38.5524 26.6627 38.9602 28.7008 38.9605C28.7021 38.9605 28.7032 38.9616 28.7032 38.963Z" fill="url(#paint0_linear_13_455)"/>
<path d="M29.5125 38.7155H29.5108H29.5093H29.5078H29.5063H29.5048H29.5033H29.5018H29.5003H29.4988H29.4973H29.4958H29.4943H29.4928H29.4913H29.4898H29.4883H29.4868H29.4853H29.4838H29.4823H29.4808H29.4793H29.4778H29.4763H29.4748H29.4733H29.4718H29.4702H29.4687H29.4672H29.4657H29.4642H29.4627H29.4612H29.4597H29.4582H29.4567H29.4552H29.4537H29.4522H29.4506H29.4491H29.4476H29.4461H29.4446H29.4431H29.4416H29.4401H29.4385H29.437H29.4355H29.434H29.4325H29.431H29.4295H29.4279H29.4264H29.4249H29.4234H29.4219H29.4204H29.4189H29.4173H29.4158H29.4143H29.4128H29.4113H29.4097H29.4082H29.4067H29.4052H29.4037H29.4021H29.4006H29.3991H29.3976H29.3961H29.3945H29.393H29.3915H29.39H29.3885H29.3869H29.3854H29.3839H29.3824H29.3808H29.3793H29.3778H29.3763H29.3747H29.3732H29.3717H29.3701H29.3686H29.3671H29.3656H29.364H29.3625H29.361H29.3595H29.3579H29.3564H29.3549H29.3533H29.3518H29.3503H29.3487H29.3472H29.3457H29.3441H29.3426H29.3411H29.3395H29.338H29.3365H29.3349H29.3334H29.3319H29.3303H29.3288H29.3273H29.3257H29.3242H29.3227H29.3211H29.3196H29.3181H29.3165H29.315H29.3134H29.3119H29.3104H29.3088H29.3073H29.3057H29.3042H29.3027H29.3011H29.2996H29.298H29.2965H29.295H29.2934H29.2919H29.2903H29.2888H29.2872H29.2857H29.2842H29.2826H29.2811H29.2795H29.278H29.2764H29.2749H29.2733H29.2718H29.2702H29.2687H29.2672H29.2656H29.2641H29.2625H29.261H29.2594H29.2579H29.2563H29.2548H29.2532H29.2517H29.2501H29.2486H29.247H29.2455H29.2439H29.2424H29.2408H29.2393H29.2377H29.2361H29.2346H29.233H29.2315H29.2299H29.2284H29.2268H29.2253H29.2237H29.2222H29.2206H29.219H29.2175H29.2159H29.2144H29.2128H29.2113H29.2097H29.2081H29.2066H29.205H29.2035H29.2019H29.2003H29.1988H29.1972H29.1957H29.1941H29.1925H29.191H29.1894H29.1879H29.1863H29.1847H29.1832H29.1816H29.18H29.1785H29.1769H29.1754H29.1738H29.1722H29.1707H29.1691H29.1675H29.166H29.1644H29.1628H29.1613H29.1597H29.1581H29.1566H29.155H29.1534H29.1519H29.1503H29.1487H29.1472H29.1456H29.144H29.1424H29.1409H29.1393H29.1377H29.1362H29.1346H29.133H29.1314H29.1299H29.1283H29.1267H29.1252H29.1236H29.122H29.1204H29.1189H29.1173H29.1157H29.1141H29.1126H29.111H29.1094H29.1078H29.1062H29.1047H29.1031H29.1015H29.0999H29.0984H29.0968H29.0952H29.0936H29.092H29.0905H29.0889H29.0873H29.0857H29.0842H29.0826H29.081H29.0794H29.0778H29.0762H29.0747H29.0731H29.0715H29.0699H29.0683H29.0667H29.0652H29.0636H29.062H29.0604H29.0588H29.0572H29.0557H29.0541H29.0525H29.0509H29.0493H29.0477H29.0461H29.0446H29.043H29.0414H29.0398H29.0382H29.0366H29.035H29.0334H29.0318H29.0303H29.0287H29.0271H29.0255H29.0239H29.0223H29.0207H29.0191H29.0175H29.0159H29.0144H29.0128H29.0112H29.0096H29.008H29.0064H29.0048H29.0032H29.0016H29H28.9984H28.9968H28.9952H28.9936H28.992H28.9904H28.9888H28.9872H28.9857H28.9841H28.9825H28.9809H28.9793H28.9777H28.9761H28.9745H28.9729H28.9713H28.9697H28.9681H28.9665H28.9649H28.9633H28.9617H28.9601H28.9585H28.9569H28.9553H28.9537H28.9521H28.9505H28.9489H28.9473H28.9457H28.944H28.9424H28.9408H28.9392H28.9376H28.936H28.9344H28.9328H28.9312H28.9296H28.928H28.9264H28.9248H28.9232H28.9216H28.92H28.9184H28.9168H28.9151H28.9135H28.9119H28.9103H28.9087H28.9071H28.9055H28.9039H28.9023H28.9007H28.8991H28.8974H28.8958H28.8942H28.8926H28.891H28.8894H28.8878H28.8862H28.8845H28.8829H28.8813H28.8797H28.8781H28.8765H28.8749H28.8733H28.8716H28.87H28.8684H28.8668H28.8652H28.8636H28.8619H28.8603H28.8587H28.8571H28.8555H28.8539H28.8522H28.8506H28.849H28.8474H28.8458H28.8442H28.8425H28.8409H28.8393H28.8377H28.8361H28.8344H28.8328H28.8312H28.8296H28.828H28.8263H28.8247H28.8231H28.8215H28.8199H28.8182H28.8166H28.815H28.8134H28.8117H28.8101H28.8085H28.8069H28.8052H28.8036H28.802H28.8004H28.7987H28.7971H28.7955H28.7939H28.7922H28.7906H28.789H28.7874H28.7857H28.7841H28.7825H28.7809H28.7792H28.7776H28.776H28.7743H28.7727H28.7711H28.7695H28.7678H28.7662H28.7646H28.7629H28.7613H28.7597H28.758H28.7564H28.7548H28.7531H28.7515H28.7511C28.7349 38.7122 28.7181 38.7105 28.7008 38.7105C26.6897 38.7102 24.3411 38.307 22.5807 37.9303C21.8001 37.7633 21.2501 37.0628 21.2501 36.2552V6C21.2501 5.0335 22.0336 4.25 23.0001 4.25H52.0803C52.8719 4.25 53.5515 4.77966 53.7126 5.54214C53.98 6.80693 54.3569 8.8402 54.6688 11.4724L54.6688 11.4724C54.9417 13.7728 54.4927 14.9372 53.8611 15.4545C53.2325 15.9692 52.3171 15.9269 51.4471 15.5529C50.5349 15.1607 48.3962 14.3949 46.4657 14.8C45.4877 15.0051 44.5594 15.5118 43.881 16.5131C43.2067 17.5082 42.7957 18.9678 42.7957 21.0508C42.7957 23.1337 43.2258 24.5436 43.9461 25.4594C44.6719 26.3822 45.664 26.7675 46.7036 26.859C47.7369 26.95 48.831 26.7528 49.796 26.5008C50.2802 26.3744 50.7363 26.2329 51.1397 26.1045C51.2181 26.0795 51.2944 26.0551 51.3682 26.0315C51.6771 25.9326 51.9454 25.8468 52.1684 25.7856C52.7121 25.6377 53.0955 25.6296 53.3724 25.7074C53.639 25.7824 53.833 25.9444 53.9883 26.2003C54.1485 26.4645 54.2641 26.8239 54.3614 27.2781C54.4452 27.669 54.5118 28.1116 54.5857 28.6021C54.5975 28.6799 54.6094 28.7589 54.6216 28.8391C54.7294 29.549 54.6293 30.7354 54.4369 32.107C54.2933 33.1313 54.1019 34.2362 53.9194 35.2898C53.8592 35.6375 53.8 35.9796 53.7437 36.3113C53.6189 37.0478 53.0583 37.6336 52.333 37.763C50.3901 38.1094 47.5722 38.5429 44.8908 38.721L44.8906 38.721C44.0511 38.7773 43.3739 38.7504 42.8679 38.6507C42.3538 38.5494 42.0613 38.382 41.9285 38.1988C41.8454 38.0821 41.7918 37.9133 41.7764 37.6839C41.7611 37.455 41.785 37.1831 41.8409 36.878C41.9529 36.2672 42.1858 35.5616 42.439 34.8707L42.439 34.8707C43.3437 32.4019 43.2956 30.1492 42.228 28.5627C41.2367 27.089 39.5113 26.3768 37.1849 26.3768C34.6904 26.3768 33.106 26.8643 32.1903 28.0478L32.1902 28.0479C31.5943 28.8187 31.3713 29.7969 31.3812 30.958C31.3911 32.1169 31.6335 33.4846 31.9944 35.059L31.9969 35.0699C32.0801 35.4369 32.2415 36.1483 32.3241 36.8455C32.3659 37.1982 32.3863 37.5383 32.3687 37.8233C32.3503 38.1192 32.2931 38.31 32.2193 38.4052L32.2189 38.4058C32.1792 38.4574 32.0988 38.5154 31.9466 38.5665C31.7964 38.6169 31.5991 38.653 31.3547 38.677C30.8667 38.7248 30.2404 38.7205 29.5208 38.7155L29.5125 38.7155Z" stroke="#4387FF" stroke-width="0.5"/>
</g>
<g filter="url(#filter1_d_13_455)">
<path d="M54.9506 62.0123C54.9475 62.0091 54.9454 62.0047 54.9448 62.0003C54.6407 59.7061 52.6716 60.3206 50.7025 61.0873C48.7314 61.8549 42.823 62.9324 42.823 56.0197C42.823 49.107 47.0662 48.6445 49.9452 49.8745C52.8242 51.1046 55.1788 52.0246 54.9894 48.187C54.8001 44.3493 53.8874 41.1218 53.7369 39.4293C53.719 39.2483 53.5628 39.1065 53.3839 39.1391C51.4039 39.4998 48.1654 40.0269 45.0951 40.2263C42.7696 40.3788 41.352 39.9902 40.6334 39.0111C39.6916 37.7269 40.2887 35.7934 40.9199 34.0861C41.6287 32.1722 41.619 30.4699 40.9005 29.417C40.2547 28.4772 39.0265 28 37.2447 28C35.2736 28 34.1036 28.3198 33.5695 29.0037C32.8364 29.9434 33.0889 31.877 33.6957 34.4895C34.2978 37.0775 34.2686 38.4157 33.5986 39.2669C32.8219 40.2509 31.4431 40.2411 29.5302 40.2263C29.2778 40.2263 29.0107 40.2263 28.734 40.2263C27.0119 40.2263 25.1055 39.9667 23.4748 39.6663C22.205 39.4324 21.0001 40.3826 21.0001 41.6738V70C21.0001 71.1046 21.8956 72 23.0001 72H52.0977C53.053 72 53.874 71.3263 54.0418 70.3858C54.466 68.007 55.1675 63.6646 54.9563 62.0237C54.9557 62.0192 54.9538 62.0155 54.9506 62.0123Z" fill="url(#paint1_linear_13_455)"/>
<path d="M53.488 39.453C53.5435 40.0752 53.6999 40.9017 53.8834 41.8712C53.9538 42.2436 54.0283 42.6371 54.1026 43.0481C54.3725 44.542 54.6459 46.2962 54.7397 48.1993C54.7863 49.142 54.6728 49.7483 54.467 50.122C54.2723 50.4756 53.9837 50.6418 53.5921 50.6825C53.1825 50.725 52.6645 50.6277 52.0507 50.4313C51.441 50.2362 50.7646 49.9528 50.0434 49.6446C48.5642 49.0127 46.6937 48.7968 45.1788 49.6775C43.6498 50.5664 42.573 52.5178 42.573 56.0197C42.573 57.7823 42.9497 59.0645 43.5703 59.9764C44.1929 60.8911 45.0459 61.4109 45.9541 61.6737C47.7532 62.1944 49.7843 61.7132 50.7933 61.3203C51.7887 60.9327 52.7223 60.6114 53.436 60.6457C53.7816 60.6623 54.0529 60.7618 54.2556 60.9605C54.4608 61.1617 54.6255 61.4936 54.697 62.0331C54.6998 62.0544 54.7052 62.0757 54.7133 62.0964C54.8051 62.8892 54.6885 64.3302 54.4893 65.8965C54.2881 67.4786 54.0075 69.1543 53.7957 70.3419C53.6496 71.1606 52.9345 71.75 52.0977 71.75H23.0001C22.0336 71.75 21.2501 70.9665 21.2501 70V41.6738C21.2501 40.5477 22.3044 39.7049 23.4295 39.9122C25.0667 40.2138 26.9901 40.4763 28.734 40.4763H28.7356H28.7373H28.7389H28.7405H28.7421H28.7437H28.7454H28.747H28.7486H28.7502H28.7518H28.7535H28.7551H28.7567H28.7583H28.7599H28.7615H28.7632H28.7648H28.7664H28.768H28.7696H28.7713H28.7729H28.7745H28.7761H28.7777H28.7793H28.7809H28.7826H28.7842H28.7858H28.7874H28.789H28.7906H28.7922H28.7939H28.7955H28.7971H28.7987H28.8003H28.8019H28.8035H28.8051H28.8068H28.8084H28.81H28.8116H28.8132H28.8148H28.8164H28.818H28.8196H28.8212H28.8229H28.8245H28.8261H28.8277H28.8293H28.8309H28.8325H28.8341H28.8357H28.8373H28.8389H28.8405H28.8421H28.8438H28.8454H28.847H28.8486H28.8502H28.8518H28.8534H28.855H28.8566H28.8582H28.8598H28.8614H28.863H28.8646H28.8662H28.8678H28.8694H28.871H28.8726H28.8742H28.8758H28.8774H28.879H28.8806H28.8822H28.8838H28.8854H28.887H28.8886H28.8902H28.8918H28.8934H28.895H28.8966H28.8982H28.8998H28.9014H28.903H28.9046H28.9062H28.9078H28.9094H28.911H28.9126H28.9142H28.9158H28.9174H28.919H28.9206H28.9221H28.9237H28.9253H28.9269H28.9285H28.9301H28.9317H28.9333H28.9349H28.9365H28.9381H28.9397H28.9413H28.9428H28.9444H28.946H28.9476H28.9492H28.9508H28.9524H28.954H28.9556H28.9572H28.9587H28.9603H28.9619H28.9635H28.9651H28.9667H28.9683H28.9699H28.9714H28.973H28.9746H28.9762H28.9778H28.9794H28.981H28.9825H28.9841H28.9857H28.9873H28.9889H28.9905H28.992H28.9936H28.9952H28.9968H28.9984H29H29.0015H29.0031H29.0047H29.0063H29.0079H29.0094H29.011H29.0126H29.0142H29.0158H29.0173H29.0189H29.0205H29.0221H29.0236H29.0252H29.0268H29.0284H29.03H29.0315H29.0331H29.0347H29.0363H29.0378H29.0394H29.041H29.0426H29.0441H29.0457H29.0473H29.0489H29.0504H29.052H29.0536H29.0551H29.0567H29.0583H29.0599H29.0614H29.063H29.0646H29.0661H29.0677H29.0693H29.0709H29.0724H29.074H29.0756H29.0771H29.0787H29.0803H29.0818H29.0834H29.085H29.0865H29.0881H29.0897H29.0912H29.0928H29.0944H29.0959H29.0975H29.0991H29.1006H29.1022H29.1038H29.1053H29.1069H29.1085H29.11H29.1116H29.1131H29.1147H29.1163H29.1178H29.1194H29.121H29.1225H29.1241H29.1256H29.1272H29.1288H29.1303H29.1319H29.1334H29.135H29.1365H29.1381H29.1397H29.1412H29.1428H29.1443H29.1459H29.1475H29.149H29.1506H29.1521H29.1537H29.1552H29.1568H29.1583H29.1599H29.1614H29.163H29.1646H29.1661H29.1677H29.1692H29.1708H29.1723H29.1739H29.1754H29.177H29.1785H29.1801H29.1816H29.1832H29.1847H29.1863H29.1878H29.1894H29.1909H29.1925H29.194H29.1956H29.1971H29.1987H29.2002H29.2018H29.2033H29.2048H29.2064H29.2079H29.2095H29.211H29.2126H29.2141H29.2157H29.2172H29.2187H29.2203H29.2218H29.2234H29.2249H29.2265H29.228H29.2295H29.2311H29.2326H29.2342H29.2357H29.2372H29.2388H29.2403H29.2419H29.2434H29.2449H29.2465H29.248H29.2496H29.2511H29.2526H29.2542H29.2557H29.2572H29.2588H29.2603H29.2618H29.2634H29.2649H29.2664H29.268H29.2695H29.271H29.2726H29.2741H29.2756H29.2772H29.2787H29.2802H29.2818H29.2833H29.2848H29.2864H29.2879H29.2894H29.291H29.2925H29.294H29.2955H29.2971H29.2986H29.3001H29.3017H29.3032H29.3047H29.3062H29.3078H29.3093H29.3108H29.3123H29.3139H29.3154H29.3169H29.3184H29.32H29.3215H29.323H29.3245H29.3261H29.3276H29.3291H29.3306H29.3321H29.3337H29.3352H29.3367H29.3382H29.3397H29.3413H29.3428H29.3443H29.3458H29.3473H29.3489H29.3504H29.3519H29.3534H29.3549H29.3564H29.358H29.3595H29.361H29.3625H29.364H29.3655H29.3671H29.3686H29.3701H29.3716H29.3731H29.3746H29.3761H29.3776H29.3792H29.3807H29.3822H29.3837H29.3852H29.3867H29.3882H29.3897H29.3912H29.3928H29.3943H29.3958H29.3973H29.3988H29.4003H29.4018H29.4033H29.4048H29.4063H29.4078H29.4093H29.4108H29.4123H29.4138H29.4154H29.4169H29.4184H29.4199H29.4214H29.4229H29.4244H29.4259H29.4274H29.4289H29.4304H29.4319H29.4334H29.4349H29.4364H29.4379H29.4394H29.4409H29.4424H29.4439H29.4454H29.4469H29.4484H29.4499H29.4514H29.4529H29.4544H29.4558H29.4573H29.4588H29.4603H29.4618H29.4633H29.4648H29.4663H29.4678H29.4693H29.4708H29.4723H29.4738H29.4753H29.4768H29.4782H29.4797H29.4812H29.4827H29.4842H29.4857H29.4872H29.4887H29.4902H29.4917H29.4931H29.4946H29.4961H29.4976H29.4991H29.5006H29.5021H29.5035H29.505H29.5065H29.508H29.5095H29.511H29.5124H29.5139H29.5154H29.5169H29.5184H29.5199H29.5213H29.5228H29.5243H29.5258H29.5273H29.5287H29.5302L29.543 40.4764C30.486 40.4837 31.3291 40.4902 32.0334 40.3674C32.7501 40.2425 33.3552 39.9787 33.7949 39.4218L33.7951 39.4215C34.1731 38.9414 34.3576 38.3361 34.3741 37.5347C34.3906 36.7388 34.2417 35.7332 33.9393 34.433C33.6363 33.1289 33.426 32.0105 33.3798 31.1066C33.3333 30.1941 33.4576 29.5536 33.7666 29.1576C33.989 28.8727 34.3591 28.6436 34.9341 28.4866C35.5094 28.3294 36.2699 28.25 37.2447 28.25C38.9916 28.25 40.1168 28.7182 40.6942 29.5583C41.3449 30.5121 41.383 32.1157 40.6854 33.9993L40.6854 33.9994C40.3696 34.8536 40.0532 35.7872 39.9388 36.6753C39.8244 37.5639 39.9073 38.4437 40.4318 39.1589L40.4319 39.159C41.233 40.2506 42.7747 40.629 45.1113 40.4758C48.1959 40.2755 51.4455 39.7463 53.4287 39.385C53.4379 39.3834 53.4471 39.3846 53.459 39.3947C53.4726 39.4062 53.4852 39.4268 53.488 39.453ZM53.488 39.453C53.488 39.4525 53.4879 39.4519 53.4879 39.4514L53.7369 39.4293L53.4881 39.4538C53.4881 39.4535 53.488 39.4533 53.488 39.453Z" stroke="#4387FF" stroke-width="0.5"/>
</g>
<path fill-rule="evenodd" clip-rule="evenodd" d="M59.1575 36.9699C60.8705 36.9699 62.2592 35.5813 62.2592 33.8683C62.2592 32.1553 60.8705 30.7666 59.1575 30.7666C57.4445 30.7666 56.0559 32.1553 56.0559 33.8683C56.0559 35.5813 57.4445 36.9699 59.1575 36.9699ZM65.5641 37.8724C64.8323 36.6833 63.29 36.3219 62.1194 37.0652C61.4731 37.4756 61.0752 38.1369 60.9715 38.847C60.871 38.8564 60.77 38.8775 60.6702 38.9111L50.7714 42.2423C50.0642 42.4803 49.6808 43.2556 49.9151 43.9739L49.9161 43.9768C50.1504 44.6951 50.9136 45.0845 51.6208 44.8465L61.5196 41.5154C61.6279 41.4789 61.7287 41.4298 61.8208 41.3703L64.9573 46.4669L61.29 48.7955C61.0208 48.9664 60.8084 49.1949 60.6588 49.4554C60.3586 49.6945 60.1265 50.0278 60.0113 50.428L58.3574 56.1732C58.0639 57.1926 58.6396 58.2607 59.6432 58.5588L59.646 58.5596C60.6496 58.8577 61.7011 58.273 61.9946 57.2535L63.5326 51.911L66.3947 50.0937V51.9146C66.1231 52.6068 66.2632 53.427 66.8148 53.9873L70.9817 58.2199C71.7211 58.9709 72.9199 58.9709 73.6592 58.2199L73.6613 58.2178C74.4007 57.4667 74.4007 56.2491 73.6613 55.4981L70.5302 52.3176V46.2294C70.5302 45.574 70.2116 44.9914 69.7178 44.6218L65.5641 37.8724Z" fill="#FF7843"/>
<path fill-rule="evenodd" clip-rule="evenodd" d="M16.5423 24.5633C18.2553 24.5633 19.644 23.1746 19.644 21.4616C19.644 19.7486 18.2553 18.36 16.5423 18.36C14.8293 18.36 13.4406 19.7486 13.4406 21.4616C13.4406 23.1746 14.8293 24.5633 16.5423 24.5633ZM5.41082 32.8385C4.96298 33.5662 4.90127 34.4279 5.16953 35.1763V40.2334L1.41234 44.0498C0.632411 44.842 0.632411 46.1264 1.41234 46.9187L1.41454 46.9209C2.19447 47.7131 3.45899 47.7131 4.23891 46.9209L8.11618 42.9825C8.81866 42.6596 9.30507 41.9609 9.30507 41.1511V38.491L12.0847 40.256L13.7103 45.9027C14.0199 46.978 15.129 47.5949 16.1877 47.2804L16.1907 47.2795C17.2493 46.9651 17.8566 45.8384 17.547 44.7631L15.8024 38.7028C15.6833 38.2894 15.4461 37.9438 15.1391 37.6928C14.9807 37.4099 14.7529 37.1618 14.4622 36.9772L10.5945 34.5213L13.903 29.1452C14.0009 29.2088 14.1081 29.2612 14.2235 29.3L24.6652 32.8139C25.4112 33.0649 26.2163 32.6541 26.4635 31.8964L26.4645 31.8934C26.7116 31.1356 26.3072 30.3178 25.5612 30.0668L15.1195 26.5529C15.0134 26.5172 14.9061 26.4949 14.7993 26.4851C14.6903 25.7353 14.2705 25.037 13.5882 24.6038C12.3533 23.8197 10.7265 24.2009 9.95459 25.4552L5.41082 32.8385Z" fill="#FF7843"/>
<defs>
<filter id="filter0_d_13_455" x="13.3001" y="0.3" width="49.4" height="50.4" filterUnits="userSpaceOnUse" color-interpolation-filters="sRGB">
<feFlood flood-opacity="0" result="BackgroundImageFix"/>
<feColorMatrix in="SourceAlpha" type="matrix" values="0 0 0 0 0 0 0 0 0 0 0 0 0 0 0 0 0 0 127 0" result="hardAlpha"/>
<feOffset dy="4"/>
<feGaussianBlur stdDeviation="3.85"/>
<feComposite in2="hardAlpha" operator="out"/>
<feColorMatrix type="matrix" values="0 0 0 0 0 0 0 0 0 0 0 0 0 0 0 0 0 0 0.48 0"/>
<feBlend mode="normal" in2="BackgroundImageFix" result="effect1_dropShadow_13_455"/>
<feBlend mode="normal" in="SourceGraphic" in2="effect1_dropShadow_13_455" result="shape"/>
</filter>
<filter id="filter1_d_13_455" x="13.3001" y="24.3" width="49.4" height="59.4" filterUnits="userSpaceOnUse" color-interpolation-filters="sRGB">
<feFlood flood-opacity="0" result="BackgroundImageFix"/>
<feColorMatrix in="SourceAlpha" type="matrix" values="0 0 0 0 0 0 0 0 0 0 0 0 0 0 0 0 0 0 127 0" result="hardAlpha"/>
<feOffset dy="4"/>
<feGaussianBlur stdDeviation="3.85"/>
<feComposite in2="hardAlpha" operator="out"/>
<feColorMatrix type="matrix" values="0 0 0 0 0 0 0 0 0 0 0 0 0 0 0 0 0 0 0.48 0"/>
<feBlend mode="normal" in2="BackgroundImageFix" result="effect1_dropShadow_13_455"/>
<feBlend mode="normal" in="SourceGraphic" in2="effect1_dropShadow_13_455" result="shape"/>
</filter>
<linearGradient id="paint0_linear_13_455" x1="38.0001" y1="4" x2="38.0001" y2="39" gradientUnits="userSpaceOnUse">
<stop stop-color="#21347A"/>
<stop offset="1" stop-color="#1B2864"/>
</linearGradient>
<linearGradient id="paint1_linear_13_455" x1="38.0001" y1="28" x2="38.0001" y2="72" gradientUnits="userSpaceOnUse">
<stop stop-color="#21347A"/>
<stop offset="1" stop-color="#1B2864"/>
</linearGradient>
</defs>
</svg>
